<svg xmlns="http://www.w3.org/2000/svg" viewBox="0 0 117.49 43.35"><g data-name="Warstwa 2"><path fill="#1a171b" d="M116.03 0l-1.81 4.87h-.01l-7.82 21.18-.01-.03-1.66 4.52.72-6.91-5.36-13.53L96.06 0H83.48l.57 1.33 1.91 4.47-7.47 20.14-.02-.06-1.72 4.66.74-7.12-5.28-13.32L68.2 0H55.61l.57 1.33h.01l1.52 3.58.36.92-1.79 4.86-5.69 15.32V26l-1.68 4.54.73-6.94-5.35-13.5L40.27 0H27.69l.57 1.33h.01l1.9 4.47-7.51 20.25v-.01L21 30.54l.71-6.88-5.94-14.99L12.28 0H0l3.95 10.06 13.1 33.29h.66L30.93 7.79l9.01 22.77 5.03 12.79h.69L58.85 7.81l.88 2.25 13.11 33.29h.75L86.75 7.88l14.04 35.47h.66l13.39-36.08L117.49 0h-1.46z" data-name="Warstwa 1"/></g></svg>